# xmcd
#
# Track frame offsets:
#	150
#	6643
#	20699
#	33935
#	48163
#	65252
#	85498
#	98838
#	110959
#	126284
#	142736
#	151910
#	169376
#	186621
#	201841
#	211216
#	219897
#	228525
#	238356
#
# Disc length: 3276 seconds
#
# Revision: 0
# Processed by: cddbd v1.5.2PL0 Copyright (c) Steve Scherf et al.
# Submitted via: dBpowerAMP V4.0
#
DISCID=180cca13
DTITLE=Conway Twitty - A Twistmas Story
DYEAR=2007
DGENRE=Country
TTITLE0=Introduction
TTITLE1=Santa Claus Is Comin' To Town
TTITLE2=Nine Little Reindeer
TTITLE3=Jingle Bells
TTITLE4=White Christmas
TTITLE5=Christmas Is For The Birds
TTITLE6=Johnny Snowman
TTITLE7=Frosty The Snowman
TTITLE8=Winter Wonderland
TTITLE9=Rudolph The Red Nose Reindeer
TTITLE10=Happy The Christmas Clown
TTITLE11=Silver Bells
TTITLE12=Ding-a-Ling, The Christmas Bell
TTITLE13=Kids
TTITLE14=Here Comes Santa Claus
TTITLE15=The Night Before Christmas
TTITLE16=Up On The Housetop
TTITLE17=Jolly Ole St. Nicholas
TTITLE18=Silent Night
EXTD=
EXTT0=
EXTT1=
EXTT2=
EXTT3=
EXTT4=
EXTT5=
EXTT6=
EXTT7=
EXTT8=
EXTT9=
EXTT10=
EXTT11=
EXTT12=
EXTT13=
EXTT14=
EXTT15=
EXTT16=
EXTT17=
EXTT18=
PLAYORDER=
